<svg xmlns="http://www.w3.org/2000/svg" xmlns:xlink="http://www.w3.org/1999/xlink" viewBox="0 0 822.55 759.26"><defs><style>.cls-1,.cls-11,.cls-13,.cls-14,.cls-16,.cls-5{fill:#1d1d1d;}.cls-1,.cls-11,.cls-13,.cls-14,.cls-16,.cls-8{stroke:#aaa;}.cls-1,.cls-11,.cls-12,.cls-13,.cls-14,.cls-16,.cls-8{stroke-miterlimit:10;stroke-width:0.4px;}.cls-2{opacity:0.81;}.cls-3{isolation:isolate;}.cls-4{fill:#f4f7fa;opacity:0.05;}.cls-6{clip-path:url(#clip-path);}.cls-14,.cls-7{opacity:0.5;}.cls-14,.cls-16,.cls-7{mix-blend-mode:soft-light;}.cls-8{fill:none;}.cls-9{clip-path:url(#clip-path-2);}.cls-10{clip-path:url(#clip-path-3);}.cls-11{opacity:0.75;}.cls-12{fill:#fff;stroke:#1d1d1d;}.cls-13,.cls-18{opacity:0.3;}.cls-13,.cls-18,.cls-19{mix-blend-mode:multiply;}.cls-15{fill:#00cfff;}.cls-16{opacity:0.44;}.cls-17{clip-path:url(#clip-path-4);}</style><clipPath id="clip-path"><path class="cls-1" d="M426.92,635.83l-77.58-42s-5.91-67.4,28.84-76.34S416,446.05,421.55,412.89c15-90,108.33-58.24,136.81-172.32,7.57-30.34,11.87-90.74,43.47-108.55,36-20.29,50.56,12,75-6.36C715.11,97,765.86,95.86,785,140c18.87,43.51-33.2,107.84-132.23,145.33-68,34.94-72.5,49.34-77,86-3.12,25.7,4.52,96.57-35.78,114.1s-73.13,39.12-67.09,70.52C482.12,603.71,426.92,635.83,426.92,635.83Z"/></clipPath><clipPath id="clip-path-2"><path class="cls-1" d="M386.1,644.79l69.1,42.12s34.61-27.52,32.93-62.86c-3.44-72.09,60-70.07,86.62-73.2,40.23-4.71,73.62-26.41,41.72-64.17s46.16-75.28,112.22-73.53c64.65,1.71,105-112.22-34.58-128.78C610.75,274.48,578.84,349.8,553.68,384s-80.69,4.44-89.21,59.77c-7.27,47.26,5.82,92.93-32.75,105S373.09,588.39,386.1,644.79Z"/></clipPath><clipPath id="clip-path-3"><path class="cls-1" d="M504.79,732.28l-78.11-17.55c-2.07-12.08-3.3-33.79,14.17-35.14,24.3-1.89,33.53-41.89,30.35-57.44C467.26,602.9,459,557.9,496.52,554.4c31.22-2.92,52,1.58,62.16-35.61s35.81-56.21,69.45-46.59c35.4,10.13,75.19-31.3,101.15-8.94,45.23,38.95-19.16,111.82-86.7,122.35S605.94,626.34,601,657.5c-6.8,42.53-61.68,21.25-80.27,34.51C506.11,702.41,504.43,720.75,504.79,732.28Z"/></clipPath><clipPath id="clip-path-4"><path class="cls-2" d="M112.3,230.51C112.3,103.32,220.59.2,354.18.2a251,251,0,0,1,105.51,23,137.4,137.4,0,0,1-4.52,48.68c-19.8,70-82.55,69.5-133.37,161.7C282.43,305,302.18,337.82,261.61,383.49a163.13,163.13,0,0,1-46.14,35.78c-.69-.49-1.37-1-2.07-1.45C152.18,376,112.3,307.71,112.3,230.51Z"/></clipPath></defs><title>1</title><g class="cls-3"><g id="Слой_2" data-name="Слой 2"><g id="Metaphor_illustration" data-name="Metaphor illustration"><path class="cls-4" d="M686.15,41.79c30.3,42.88-55.81,148-18.23,182.26,25.75,23.5,72.1-18.33,107,4.3,47.5,30.76,40.39,173.9-27.64,263.5-20.46,26.95-37.68,37.53-45,67.84C686.86,623.24,745,657.26,734.13,695c-13.18,45.86-115.48,55.63-408,59.26-241.3,3-268.08-2.45-291-27C-50,636,31.46,401.53,151.47,257.54,331.61,41.41,641.12-22,686.15,41.79Z"/><path class="cls-1" d="M472.93,555.93c5.28,27.47-11.71,49.4-26.27,63.39-2.49-.6-4.11-.27-6.77-.28-24.06-.12-34-5.58-57.49-9.64-5-.88-18.88-8.24-24.33-11.65l-10-6.52s-4.6-64.76,30.15-73.7S416,446.05,421.55,412.89c15-90,108.33-58.24,136.81-172.32,7.57-30.34,11.87-90.74,43.47-108.55,36-20.29,50.56,12,75-6.36C715.11,97,765.86,95.86,785,140c18.87,43.51-33.2,107.84-132.23,145.33-68,34.94-72.5,49.34-77,86-3.12,25.7,4.52,96.57-35.78,114.1S466.89,524.53,472.93,555.93Z"/><path class="cls-5" d="M426.92,635.83l-77.58-42s-5.91-67.4,28.84-76.34S416,446.05,421.55,412.89c15-90,108.33-58.24,136.81-172.32,7.57-30.34,11.87-90.74,43.47-108.55,36-20.29,50.56,12,75-6.36C715.11,97,765.86,95.86,785,140c18.87,43.51-33.2,107.84-132.23,145.33-68,34.94-72.5,49.34-77,86-3.12,25.7,4.52,96.57-35.78,114.1s-73.13,39.12-67.09,70.52C482.12,603.71,426.92,635.83,426.92,635.83Z"/><g class="cls-6"><g class="cls-7"><path class="cls-1" d="M394.18,613.31l-1.63-.63c3.75-9.72,7.64-19.48,11.58-29C433.32,513.16,468,447.92,507.3,389.77c33.28-49.28,70.29-94.17,110-133.42A735.22,735.22,0,0,1,718,172.8a589.66,589.66,0,0,1,73.45-43.19c4.23-2.07,8.66-4,13-5.77,5.72-2.42,11.64-4.93,17.09-7.9l.84,1.53c-5.53,3-11.49,5.54-17.24,8-4.27,1.81-8.69,3.68-12.87,5.73a588.18,588.18,0,0,0-73.24,43.06A734.38,734.38,0,0,0,618.54,257.6c-39.63,39.17-76.57,84-109.79,133.14-39.21,58.06-73.86,123.2-103,193.61C401.81,593.86,397.92,603.6,394.18,613.31Z"/><path class="cls-1" d="M572.2,307.34l-1.36-1.1C618.18,248,621.3,119.41,621.32,118.12l1.75,0C623.05,119.45,619.91,248.63,572.2,307.34Z"/><path class="cls-1" d="M454.07,481.89,452.6,481c27.53-43.35,125.11-57.84,126.09-58l.25,1.73C578,424.85,481.18,439.22,454.07,481.89Z"/><path class="cls-1" d="M440.58,507.84l-1.62-.66c12.68-31,13.41-80.13,2-138.24-.57-2.93-.57-2.93-.45-3.24l1.63.65-.81-.32h.87c0,.2.23,1.3.48,2.58C454.15,427.05,453.39,476.5,440.58,507.84Z"/><path class="cls-1" d="M401.27,595.67l-1.36-1.1c23.17-28.75,77.93-28.75,78.48-28.75v1.75C477.84,567.56,423.91,567.57,401.27,595.67Z"/><path class="cls-1" d="M391.58,612.81c.61-29.77-7.3-60.69-24.2-94.52l1.57-.78c17,34.09,25,65.27,24.38,95.33Z"/><path class="cls-1" d="M698.65,188.64l-1.29-1.18c28.12-30.91,50.5-69.92,57.85-82.73,1.78-3.1,2.41-4.19,2.69-4.53l1.35,1.12c-.22.26-1.24,2-2.52,4.28C749.35,118.46,726.9,157.58,698.65,188.64Z"/><path class="cls-1" d="M645.49,232.15l-.89-1.51c33.74-19.94,109.59-.17,112.8.68L757,233C756.18,232.8,678.6,212.58,645.49,232.15Z"/></g></g><path class="cls-8" d="M426.92,635.83l-77.58-42s-5.91-67.4,28.84-76.34S416,446.05,421.55,412.89c15-90,108.33-58.24,136.81-172.32,7.57-30.34,11.87-90.74,43.47-108.55,36-20.29,50.56,12,75-6.36C715.11,97,765.86,95.86,785,140c18.87,43.51-33.2,107.84-132.23,145.33-68,34.94-72.5,49.34-77,86-3.12,25.7,4.52,96.57-35.78,114.1s-73.13,39.12-67.09,70.52C482.12,603.71,426.92,635.83,426.92,635.83Z"/><path class="cls-5" d="M386.1,644.79l69.1,42.12s34.61-27.52,32.93-62.86c-3.44-72.09,60-70.07,86.62-73.2,40.23-4.71,73.62-26.41,41.72-64.17s46.16-75.28,112.22-73.53c64.65,1.71,105-112.22-34.58-128.78C610.75,274.48,578.84,349.8,553.68,384s-80.69,4.44-89.21,59.77c-7.27,47.26,5.82,92.93-32.75,105S373.09,588.39,386.1,644.79Z"/><g class="cls-9"><path class="cls-1" d="M386.1,644.79l69.1,42.12s34.61-27.52,32.93-62.86c-3.44-72.09,60-70.07,86.62-73.2,40.23-4.71,69-24.93,47.16-62.76-24.74-42.8,40.72-76.69,106.78-74.94,64.65,1.71,105-112.22-34.58-128.78C610.75,274.48,578.84,349.8,553.68,384s-80.69,4.44-89.21,59.77c-7.27,47.26,5.82,92.93-32.75,105S373.09,588.39,386.1,644.79Z"/><g class="cls-7"><path class="cls-1" d="M412.1,669.43l1.59.61c.38-1,38.67-99.77,106.14-186.24C582,404.13,682.38,318.9,807.59,365.3l.6-1.6c-55.74-20.66-111.27-17.4-165.06,9.68-43,21.64-84.91,58.44-124.66,109.39C450.84,569.45,412.48,668.44,412.1,669.43Z"/><path class="cls-1" d="M621.14,385.67l1.56.7c23.37-51.83,83.44-109.08,84-109.65l-1.17-1.24C705,276.05,644.65,333.53,621.14,385.67Z"/><path class="cls-1" d="M657.47,368.61c67.76-.66,104.69,42,105,42.41l1.3-1.1c-.37-.44-37.78-43.69-106.36-43Z"/><path class="cls-1" d="M478.8,542.74c58.23-58.83,162.05-18.68,163-18.21l.84-1.48c-.91-.56-106.34-40.87-165.09,18.48Z"/><path class="cls-1" d="M496.11,513.32l1.61.57c17.74-49.75-11.64-109.33-11.94-109.93l-1.53.76C484.55,405.31,513.6,464.26,496.11,513.32Z"/><path class="cls-1" d="M420.06,654.63c18.42-25.49,69.56-23.39,70.07-23.36l.08-1.71c-2.14-.1-52.57-2.17-71.54,24.07Z"/><path class="cls-1" d="M428.81,631.12l1.59.63c9.18-23.11-8.24-65.7-14-79.7-.81-2-1.51-3.69-1.58-4l-1.68.31a43.71,43.71,0,0,0,1.67,4.36C420.51,566.53,437.74,608.65,428.81,631.12Z"/></g></g><path class="cls-8" d="M386.1,644.79l69.1,42.12s34.61-27.52,32.93-62.86c-3.44-72.09,60-70.07,86.62-73.2,40.23-4.71,73.62-26.41,41.72-64.17s46.16-75.28,112.22-73.53c64.65,1.71,105-112.22-34.58-128.78C610.75,274.48,578.84,349.8,553.68,384s-80.69,4.44-89.21,59.77c-7.27,47.26,5.82,92.93-32.75,105S373.09,588.39,386.1,644.79Z"/><path class="cls-1" d="M508.14,708.75l-1,.19c-19.74,3.76-42,4.37-66.83-.15L426,705.12c-1.52-12.33-.76-24.32,14.88-25.53,24.3-1.89,33.53-41.89,30.35-57.44C467.26,602.9,459,557.9,496.52,554.4c31.22-2.92,52,1.58,62.16-35.61s35.81-56.21,69.45-46.59c35.4,10.13,75.19-31.3,101.15-8.94,45.23,38.95-19.16,111.82-86.7,122.35S605.94,626.34,601,657.5c-6.8,42.53-61.68,21.25-80.27,34.51A35.35,35.35,0,0,0,508.14,708.75Z"/><path class="cls-5" d="M504.79,732.28l-78.11-17.55c-2.07-12.08-3.3-33.79,14.17-35.14,24.3-1.89,33.53-41.89,30.35-57.44C467.26,602.9,459,557.9,496.52,554.4c31.22-2.92,52,1.58,62.16-35.61s35.81-56.21,69.45-46.59c35.4,10.13,75.19-31.3,101.15-8.94,45.23,38.95-19.16,111.82-86.7,122.35S605.94,626.34,601,657.5c-6.8,42.53-61.68,21.25-80.27,34.51C506.11,702.41,504.43,720.75,504.79,732.28Z"/><g class="cls-10"><g class="cls-7"><path class="cls-1" d="M470.77,711.73l-1.59-.7c51.18-116,158.43-206.69,279.9-236.54l.41,1.68C628.54,505.9,521.74,596.16,470.77,711.73Z"/><path class="cls-1" d="M504.09,650.85l-1.69-.37c10.71-48.68-22.61-95.8-22.95-96.27l1.41-1C481.2,553.67,515,601.4,504.09,650.85Z"/><path class="cls-1" d="M480.77,690.64l-1.32-1.14c33-38.28,124-24.69,124.93-24.55l-.26,1.72C603.21,666.53,513.13,653.09,480.77,690.64Z"/><path class="cls-1" d="M587.47,558.64l-1.41-1c23.49-32.49,12.21-92.92,12.09-93.53l1.7-.33C600,464.39,611.39,525.55,587.47,558.64Z"/><path class="cls-1" d="M654.09,513.37l-.57-1.64c43.15-15,99.18,10.86,99.74,11.13l-.74,1.57C752,524.17,696.57,498.61,654.09,513.37Z"/></g></g><path class="cls-8" d="M504.79,732.28l-78.11-17.55c-2.07-12.08-3.3-33.79,14.17-35.14,24.3-1.89,33.53-41.89,30.35-57.44C467.26,602.9,459,557.9,496.52,554.4c31.22-2.92,52,1.58,62.16-35.61s35.81-56.21,69.45-46.59c35.4,10.13,75.19-31.3,101.15-8.94,45.23,38.95-19.16,111.82-86.7,122.35S605.94,626.34,601,657.5c-6.8,42.53-61.68,21.25-80.27,34.51C506.11,702.41,504.43,720.75,504.79,732.28Z"/><path class="cls-11" d="M112.3,230.51C112.3,103.32,220.59.2,354.18.2S596.06,103.32,596.06,230.51c0,77.2-39.89,145.52-101.11,187.31a95,95,0,0,0-41.72,78.39v17.63a69.34,69.34,0,0,1-69.34,69.34H324.46a69.35,69.35,0,0,1-69.34-69.34V496.21a95,95,0,0,0-41.72-78.39C152.18,376,112.3,307.71,112.3,230.51Z"/><ellipse class="cls-12" cx="354.18" cy="685.87" rx="53.66" ry="28.41"/><path class="cls-12" d="M425.47,635.12v29a25.47,25.47,0,0,1-14.45,23c-12.3,5.87-32.74,12.31-62.46,11.54-24.11-.61-39.83-4.55-49.83-8.69a25.9,25.9,0,0,1-15.84-24V650Z"/><path class="cls-13" d="M425.47,660.53a28.13,28.13,0,0,1-7.52,5.25c-13.8,6.58-104.17,21.29-126,13.09a29,29,0,0,1-7.61-4.2,26.11,26.11,0,0,1-1.48-8.65V650l142.58-14.85Z"/><path class="cls-12" d="M419.14,615.38a13.61,13.61,0,0,1,15,13.54v.82A28.59,28.59,0,0,1,418,655.58c-13.8,6.58-104.17,21.28-126,13.09-11-4.12-17.78-13.54-17.78-25.27v-.66a13.62,13.62,0,0,1,12.2-13.54Z"/><path class="cls-13" d="M286.4,629.21l132.74-13.83a13.6,13.6,0,0,1,12.71,6A28.39,28.39,0,0,1,418,636c-13.8,6.58-108,23.2-126,14.74a31.18,31.18,0,0,1-15.41-15.61A13.55,13.55,0,0,1,286.4,629.21Z"/><path class="cls-12" d="M424.33,568.38a9.82,9.82,0,0,1,9.82,9.83v22.72A28.59,28.59,0,0,1,418,626.77c-13.8,6.58-108,23.2-126,14.74-10.61-5-17.78-15.2-17.78-26.92V578.21a9.83,9.83,0,0,1,9.82-9.83Z"/><path class="cls-1" d="M276.18,575.46c0,10.18,34.92,18.44,78,18.44s78-8.26,78-18.44S397.26,557,354.18,557,276.18,565.27,276.18,575.46Z"/><path class="cls-1" d="M112.3,230.51C112.3,103.32,220.59.2,354.18.2S596.06,103.32,596.06,230.51c0,77.2-39.89,145.52-101.11,187.31a95,95,0,0,0-41.72,78.39v17.63a69.34,69.34,0,0,1-69.34,69.34H324.46a69.35,69.35,0,0,1-69.34-69.34V496.21a95,95,0,0,0-41.72-78.39C152.18,376,112.3,307.71,112.3,230.51Z"/><ellipse class="cls-14" cx="354.18" cy="560.92" rx="57.07" ry="13.49"/><path class="cls-15" d="M369.05,569.16a3.31,3.31,0,0,0,3.27-2.88l42-326.52a3.3,3.3,0,0,0-6.54-.84l-42,326.52a3.3,3.3,0,0,0,2.86,3.69Z"/><path class="cls-15" d="M343,569.16l.43,0a3.3,3.3,0,0,0,2.85-3.69l-42-326.52a3.3,3.3,0,1,0-6.54.84l42,326.52A3.31,3.31,0,0,0,343,569.16Z"/><path class="cls-15" d="M308.78,239.49a3.28,3.28,0,0,0,2.75-1.48l11.59-17.58a.53.53,0,0,1,.92,0l7.65,12.82a7.12,7.12,0,0,0,12.07.29l10.5-15.75a.54.54,0,0,1,.46-.26.56.56,0,0,1,.44.24l9.23,13.34a7.13,7.13,0,0,0,5.84,3.09h0a7.19,7.19,0,0,0,5.86-3.07l13.3-19.06a.56.56,0,0,1,.47-.25.51.51,0,0,1,.44.28l12.15,21a3.3,3.3,0,1,0,5.7-3.31L396,208.8a7.13,7.13,0,0,0-12-.5l-13.3,19.06a.53.53,0,0,1-.45.25h0a.51.51,0,0,1-.44-.24L360.58,214a7.12,7.12,0,0,0-11.8.11l-10.51,15.75c-.12.18-.29.33-.47.26a.51.51,0,0,1-.45-.27l-7.65-12.82a7.11,7.11,0,0,0-6-3.49,7.19,7.19,0,0,0-6.13,3.23L306,234.38a3.29,3.29,0,0,0,2.75,5.11Z"/><path class="cls-13" d="M349.79,412.18C344.61,323.41,195,302.63,195.6,223.36c.39-48.83,59.86-85.09,72.56-92.35,93.57-53.52,208.74,8.28,232.52-35.46,5.92-10.89,3.15-22.74,1.57-29.5-2.39-10.2-7.81-19.7-15.83-28.39,66,41.12,109.64,112.13,109.64,192.85,0,77.2-39.89,145.52-101.11,187.31a95,95,0,0,0-41.72,78.39v17.63a69.34,69.34,0,0,1-69.34,69.34H324.46a69.35,69.35,0,0,1-69.34-69.34V499.75C263.3,506,272.7,510.39,283,510.3,318.74,510,352.37,456.35,349.79,412.18Z"/><ellipse class="cls-16" cx="350.31" cy="239.49" rx="208.14" ry="200.73"/><path class="cls-2" d="M112.3,230.51C112.3,103.32,220.59.2,354.18.2a251,251,0,0,1,105.51,23,137.4,137.4,0,0,1-4.52,48.68c-19.8,70-82.55,69.5-133.37,161.7C282.43,305,302.18,337.82,261.61,383.49a163.13,163.13,0,0,1-46.14,35.78c-.69-.49-1.37-1-2.07-1.45C152.18,376,112.3,307.71,112.3,230.51Z"/><g class="cls-17"><path class="cls-1" d="M112.3,230.51C112.3,103.32,220.59.2,354.18.2S596.06,103.32,596.06,230.51c0,77.2-39.89,145.52-101.11,187.31a95,95,0,0,0-41.72,78.39v17.63a69.34,69.34,0,0,1-69.34,69.34H324.46a69.35,69.35,0,0,1-69.34-69.34V496.21a95,95,0,0,0-41.72-78.39C152.18,376,112.3,307.71,112.3,230.51Z"/><path class="cls-13" d="M459.69,23.22c-23-.31-54.72,3.24-77.3,24.68-28.22,26.81-15.28,56-34.62,95.21-32.54,66-98.14,42.15-143.21,110.16-41,61.86-25.76,140.49-8.65,152.65,1.53,1.09,19.56,13.35,19.56,13.35h0L482.32,304.42Z"/><ellipse class="cls-1" cx="354.18" cy="230.6" rx="231.71" ry="220.71"/><ellipse class="cls-1" cx="354.18" cy="230.6" rx="169.6" ry="220.71"/><ellipse class="cls-1" cx="354.18" cy="230.6" rx="84.8" ry="220.71"/><rect class="cls-1" x="353.18" y="9.89" width="2" height="441.42"/><ellipse class="cls-1" cx="354.18" cy="235.81" rx="231.71" ry="19.6"/><ellipse class="cls-1" cx="354.18" cy="146.1" rx="213.76" ry="25.75"/><ellipse class="cls-1" cx="354.82" cy="48.12" rx="126.63" ry="19.98"/><ellipse class="cls-1" cx="354.18" cy="313.44" rx="213.76" ry="25.75"/><ellipse class="cls-1" cx="354.82" cy="411.43" rx="126.63" ry="19.98"/><path class="cls-1" d="M183.71,162.19a8.86,8.86,0,1,0,8.85-8.85A8.85,8.85,0,0,0,183.71,162.19Z"/><circle class="cls-1" cx="272.53" cy="170.49" r="8.85" transform="translate(-23.79 45.86) rotate(-9.22)"/><circle class="cls-1" cx="186.74" cy="248.35" r="8.85" transform="translate(-52.06 49.55) rotate(-13.28)"/><circle class="cls-1" cx="269.87" cy="253.37" r="8.85"/><circle class="cls-1" cx="140.93" cy="143.9" r="8.85" transform="translate(-45.95 219.03) rotate(-67.5)"/><circle class="cls-1" cx="123.22" cy="236.04" r="8.85" transform="translate(-36.22 22.79) rotate(-9.22)"/><path class="cls-1" d="M345.33,171.63a8.85,8.85,0,1,0,8.85-8.85A8.86,8.86,0,0,0,345.33,171.63Z"/><path class="cls-1" d="M345.33,67.77a8.85,8.85,0,1,0,8.85-8.85A8.85,8.85,0,0,0,345.33,67.77Z"/><path class="cls-1" d="M288.84,65.41a8.85,8.85,0,1,0,8.85-8.85A8.85,8.85,0,0,0,288.84,65.41Z"/><path class="cls-1" d="M240.76,58.72a8.85,8.85,0,1,0,8.85-8.85A8.85,8.85,0,0,0,240.76,58.72Z"/><circle class="cls-1" cx="228.36" cy="46.51" r="8.85"/><path class="cls-1" d="M345.33,9.94a8.85,8.85,0,1,0,8.85-8.85A8.85,8.85,0,0,0,345.33,9.94Z"/><circle class="cls-1" cx="279.9" cy="338.05" r="8.85" transform="translate(-157.06 296.94) rotate(-45)"/><circle class="cls-1" cx="202.79" cy="330.18" r="8.85" transform="translate(-70.44 55.43) rotate(-13.28)"/><circle class="cls-1" cx="142.16" cy="315.23" r="8.85"/></g><path class="cls-1" d="M172.8,743s-.73,5.77-.24,7.71,17.27,3.33,23,2.66-3.39-6.5-7-7.59S172.8,743,172.8,743Z"/><path class="cls-15" d="M181.25,733.37,179.48,745s-4.52,2-6.68,0l-.24-12.12Z"/><path class="cls-1" d="M86.6,732.85s3.57,2.64,2.62,5.81S80,754.51,74,758.11s-4.07-3.9-2.34-8.57,6.13-15,7.85-16.69S86.6,732.85,86.6,732.85Z"/><path class="cls-15" d="M93,720.12c-1.72,4.8-3.38,8.75-4.67,11.66-2.87,6.44-4.44,8.85-6.21,11-1.55,1.82-5.21,5.72-6.19,5.07s1.68-5.39,6.84-19.26c.75-2,3.12-8.42,3.12-8.42H93Z"/><path class="cls-1" d="M216.41,519.55a301.12,301.12,0,0,1,.64,53.52c-2.3,29.61-8.22,48.35-15.64,79.92-4.54,19.29-10.65,47.69-16.19,83.21a15.65,15.65,0,0,1-9.92,1.94,15,15,0,0,1-6-2.26c-14.52-44.36-10.23-71.86-3.23-89,3-7.3,6.61-13.06,8.55-24.29,2.56-14.84-.61-23.14-5.13-57.54-3.21-24.51-2.66-28.3-.52-32C177.57,518.4,203.76,518.68,216.41,519.55Z"/><path class="cls-1" d="M166.43,524.71c-8.89,45.93-17.62,70-24.22,83.7A227.83,227.83,0,0,0,130,638.19a242.88,242.88,0,0,0-7.42,28.37c-3.07,14.08-10.64,34.64-31,61.6-.26.15-3.74,2.12-7.06.36a6.76,6.76,0,0,1-2.85-3c2.66-25.78,5.72-47.44,8.38-64.16.56-3.5,3-18.84,6.86-39.11,1.51-7.93,3.71-19.55,6.36-31.49,3.29-14.86,8.34-35.09,16.12-59.32Z"/><path class="cls-12" d="M174,343c5.05-4.66,14.69-10,19.53-22.53,1.46-3.76,6.62-17.08-1-27.28-4.52-6.05-12.91-10.15-20.31-8.7-6.32,1.24-7.31,5.65-18.06,14.51-4.18,3.45-10.9,9-18.38,12.07-12.82,5.29-20.52.32-33.38.88-15.81.7-34.17,9.52-43,22.35-15.7,22.77,7.05,45.86-10.15,72.54-5.64,8.74-8.42,6.78-21.77,23.69S7.44,456,8.62,466.36c1.66,14.4,17.17,28.16,31.78,29.1,14.27.91,23.34-10.32,30.61-5.41,5.17,3.5,2.21,10.3,7.7,18.47,7.08,10.53,21,12.63,23.25,13,20.86,3.14,49-21.32,60.93-50.3C184.43,418.94,146.59,368.39,174,343Z"/><path class="cls-1" d="M259.61,357.55c.14-14.59-33-26.24-48.16-30a107.36,107.36,0,0,0-47.06-1.2c-29.41,6.23-47.73,23.88-54.62,31.3a73.72,73.72,0,0,1,28.94,36.17c2.4,6.62,9.49,29.26-.65,50.46-5.84,12.21-16.18,21.38-24,28.35C102.25,483.08,96.15,484.68,92.2,494c-4.3,10.2,0,15.17-5.31,22.15-5.73,7.49-12.45,4-22.17,11.58-10,7.77-6.41,14.15-15.47,22.73-13.17,12.47-30.62,8.42-31.44,14-.7,4.82,11.71,11.37,22.25,14,20.87,5.26,39.07-3.57,44.49-6.29,15-7.53,12.4-12.4,23.82-18.14,19.14-9.61,32.21,1.08,75.8,2.19,23.6.59,35.53.73,42.07-7.26,6-7.29,2.83-15.29-.75-49.77-1.71-16.41-2.32-32.92-3.58-49.37-3.55-46.53-3.66-50.62-.51-57.06C232.71,369.81,259.48,370.64,259.61,357.55Z"/><g class="cls-18"><path class="cls-1" d="M49.25,550.5c9.06-8.58,5.51-15,15.47-22.73,9.72-7.57,16.44-4.09,22.17-11.58,5.34-7,1-12,5.31-22.15,4-9.36,10-11,21.83-21.41,7.85-7,18.19-16.14,24-28.35,10.14-21.2,3.05-43.84.65-50.46a73.72,73.72,0,0,0-28.94-36.17c.54-.59,1.18-1.25,1.87-2,37.2,5.11,58.88,26.61,61.57,33,6.2,14.71-3.62,20.12-3.87,62.55-.12,20.28,2.06,28.28-4.52,36.75-7.52,9.68-16.19,6.68-27.08,19.34-8.36,9.73-7,15.89-14.83,20-8.39,4.41-13.74-.73-23.21,1.29C83.88,532,80.5,550.19,70,560.17c-7.91,7.55-22.53,12.83-51.37,7.16a4,4,0,0,1-.86-2.8C18.63,558.92,36.08,563,49.25,550.5Z"/></g><path class="cls-1" d="M161.92,400.11c4,8.39-14.21,27.95-34.41,37.24-4.11,1.89-33.66,15.48-46.83,2.41C69.8,429,76.82,406.64,79.33,398.67c12.31-39.13,50.12-59,66-66.22,11.83,29.57,4.87,42.75,2.12,46.86-2.86,4.3-10.85,13.33-19.34,21.28-6,5.59-9.69,8.32-9.19,9.19.62,1.09,7.62-1,34.81-14.2C156.84,396.09,160.57,397.24,161.92,400.11Z"/><path class="cls-1" d="M275.66,351.87l-13.34,66.42a5.43,5.43,0,0,1-4.2,4.25l-99.45,21.35a5.45,5.45,0,0,1-6.57-5.75l5.24-67.56a5.48,5.48,0,0,1,4.13-4.87c15.78-3.89,76.5-18.47,108.52-20.36A5.44,5.44,0,0,1,275.66,351.87Z"/><path class="cls-1" d="M176.47,303.36s-1.88,15-7.41,18.43-14.49,7.92-15.47,9.14,34.29,5,51.77-3.81h0c-5.76-1.2-7.33-1.65-7.33-1.65a32.11,32.11,0,0,1-7.4-2.93,25.08,25.08,0,0,1-8.14-7.52l.06-8.31Z"/><path class="cls-15" d="M175.63,308.67s3.6,4.95,9.26,2.89c5.07-1.85,2.05-14.94-2-16.43a7.09,7.09,0,0,0-5.45.75c-1.16.72-4.25,4.56-2.48,8.86-1.28-.37-2.41,0-2.69.6-.36.8.73,1.9,1,2.15A4.34,4.34,0,0,0,175.63,308.67Z"/><path class="cls-13" d="M186.1,409.3c10.68-3,19.54,4.46,28.05-1.46,8.72-6.06,3-16.41,12.09-26.59,9.69-10.89,22-5.56,30.95-15.48,3.33-3.68,6.32-9.68,6.37-19.92,2.25-.21,4.4-.38,6.43-.51a5.45,5.45,0,0,1,5.67,6.53l-13.34,66.42a5.43,5.43,0,0,1-4.2,4.25l-95.57,20.51C169.3,419.38,178.3,411.49,186.1,409.3Z"/><path class="cls-15" d="M268.67,387.2s6.34-5.86,7-12.67A13.13,13.13,0,0,0,267,360.88c-4.64-1.39-7.12.65-4,7.36S271,379.3,268.67,387.2Z"/><g class="cls-19"><path class="cls-13" d="M424.72,383.58h0a7.32,7.32,0,0,1,5.5,2.91h0c17.13-48.1,73.52-83.89,141.19-84.52a188.75,188.75,0,0,1,39.85,3.82h0c50.56,10.38,90.82,41,105.19,80.26a8.22,8.22,0,0,1,6-3c5.51,0,10.29,7.17,10.29,16v46.61c0,8.88-4.56,16-10.07,16h-.33c-3.28,0-6.38-2.6-8.18-6.56-20.25,46.25-76.85,79-142.77,78.15a185.6,185.6,0,0,1-52.28-8c-41-12.57-73-38.89-86.8-71.46h0c-1.72,3.85-4.53,6.34-7.64,6.32h0c-5.2,0-9.47-7-9.47-15.63V399.18C415.25,390.57,419.52,383.59,424.72,383.58Z"/><path class="cls-13" d="M527.67,550.42l87.87,1.21a63.51,63.51,0,0,1,31.6,9,65.29,65.29,0,0,1,29.07,75.07c-.12.4-.24.8-.37,1.2l-2.29,7.39q-7,22.44-13.92,44.83c-11.82,38.07-46.81,63.07-86.29,61.78a94.8,94.8,0,0,1-35.48-8.14,98.74,98.74,0,0,1-54.28-61.85q-6.18-20.58-12.37-41.13L469,632.42l-.36-1.19a63.79,63.79,0,0,1,9.24-55.86A60.45,60.45,0,0,1,527.67,550.42Z"/></g><path class="cls-1" d="M422.28,410.08a90.48,90.48,0,0,0,7.32,35.54c13.53,31.85,44.81,57.57,84.86,69.86a181.14,181.14,0,0,0,51.1,7.87c64.44.79,119.77-31.18,139.57-76.4a89.86,89.86,0,0,0,2.17-67.53c-14-38.4-53.36-68.32-102.79-78.46a183.73,183.73,0,0,0-39-3.74c-66.16.62-121.28,35.61-138,82.63A89.69,89.69,0,0,0,422.28,410.08Z"/><path class="cls-1" d="M498.33,470.81l130.66.94a48.37,48.37,0,0,0,48.55-48.63V394.51a22,22,0,0,0-22-22.08l-183,.4a21.46,21.46,0,0,0-21.14,21.71v28C451.41,449,472.36,470.62,498.33,470.81Z"/><path class="cls-1" d="M556.25,495.08l18.62.18c25.82.24,46.84-20.82,46.84-47.06h0c0-26.23-21-47.5-46.84-47.51H556.25c-25.59,0-46.25,21-46.25,47h0C510,473.6,530.66,494.84,556.25,495.08Z"/><path class="cls-1" d="M494.85,448.77l139.17.71a34.47,34.47,0,0,0,34.51-34.63V402.16a22,22,0,0,0-21.95-22.08l-163.93.24A21.47,21.47,0,0,0,461.46,402v12.45C461.46,433.32,476.38,448.67,494.85,448.77Z"/><path class="cls-12" d="M593,418.71a11.24,11.24,0,0,1-2.15-6.42c0-7.55,7.91-13.67,17.68-13.67s17.74,6.15,17.74,13.73a11.21,11.21,0,0,1-2.16,6.43Z"/><path class="cls-12" d="M504.8,418.52a11.23,11.23,0,0,1-2.12-6.37c0-7.49,7.78-13.56,17.39-13.56s17.45,6.1,17.45,13.62a11.25,11.25,0,0,1-2.13,6.38Z"/><path class="cls-1" d="M704.23,392.17v45.48c0,3.47.2,6.69,1.4,9.3,1.76,3.87,4.26,6.4,7.47,6.42,5.39,0,9.41-7,9.41-15.64V392.16c0-8.66-4.27-15.68-9.66-15.67a7.48,7.48,0,0,0-5.6,2.93c-.43.5-.32,1.06-.7,1.67C704.79,383.93,704.23,387.84,704.23,392.17Z"/><path class="cls-1" d="M422.19,451.79h0c5.09,0,9.21-6.78,9.21-15.21V392.26c0-8.43-4.12-15.25-9.21-15.24h0c-5.09,0-9.21,6.83-9.21,15.24v44.25C413,444.92,417.1,451.77,422.19,451.79Z"/><path class="cls-1" d="M465.07,619.12c.12.38.24.78.35,1.16l2.16,7.19q6,20.1,12.09,40.21a96.53,96.53,0,0,0,53.07,60.46,92.88,92.88,0,0,0,34.69,8c38.59,1.25,72.8-23.19,84.35-60.41q6.79-21.9,13.61-43.82l2.25-7.23.36-1.17a63.84,63.84,0,0,0-28.42-73.38,62,62,0,0,0-30.9-8.8l-85.9-1.18a59.08,59.08,0,0,0-48.67,24.39A62.38,62.38,0,0,0,465.07,619.12Z"/><polygon class="cls-1" points="465.42 620.28 467.58 627.47 665.39 631.88 667.64 624.65 465.42 620.28"/><path class="cls-13" d="M555.16,495.05a210.38,210.38,0,0,1-40.7,20.43,181.14,181.14,0,0,0,51.1,7.87c64.44.79,119.77-31.18,139.57-76.4,1.76,3.87,4.51,6.4,7.72,6.41,5.39,0,9.66-7,9.66-15.63V392.16c0-8.66-4.27-15.68-9.66-15.67a7.48,7.48,0,0,0-5.6,2.93c-14-38.4-53.34-68.32-102.77-78.46-4.67,16.68-4.53,37.44,4,63.21.94,2.83,1.76,5.61,2.48,8.36.67,2.56,1.23,5.1,1.71,7.61a106,106,0,0,1,1.88,19.3,96.62,96.62,0,0,1-1.89,19.31c-.09.38-.16.76-.25,1.13a98.58,98.58,0,0,1-11.61,29.43A121.93,121.93,0,0,1,584,471.43,162,162,0,0,1,555.16,495.05Z"/><path class="cls-13" d="M532.74,728.14a92.88,92.88,0,0,0,34.69,8c38.59,1.25,72.8-23.19,84.35-60.41q6.79-21.9,13.61-43.82l2.25-7.23.36-1.17a63.84,63.84,0,0,0-28.42-73.38c-.42,21.31,3.56,45.37-25.88,73.38-2.45,2.34-5.12,4.7-8.05,7.07a209.57,209.57,0,0,1-26.46,18.07C528.75,678.16,516.24,707.4,532.74,728.14Z"/></g></g></g></svg>