<svg xmlns="http://www.w3.org/2000/svg" viewBox="0 0 496.25 608.73"><defs><style>.cls-1{fill:#fff;fill-rule:evenodd;}</style></defs><title>apple</title><g id="Слой_2" data-name="Слой 2"><g id="Ebene_1" data-name="Ebene 1"><path class="cls-1" d="M273.81,53c40-52.71,95.6-53,95.6-53S377.68,49.56,338,97.31c-42.43,51-90.65,42.63-90.65,42.63S238.24,99.85,273.81,53Z"/><path class="cls-1" d="M252.38,174.66c20.58,0,58.77-28.28,108.48-28.28,85.56,0,119.22,60.88,119.22,60.88s-65.84,33.66-65.84,115.33c0,92.13,82,123.89,82,123.89S438.92,607.83,361.49,607.83c-35.56,0-63.21-24-100.69-24-38.18,0-76.08,24.86-100.76,24.86-70.71,0-160-153.06-160-276.1,0-121,75.61-184.56,146.53-184.56C192.64,148.07,228.42,174.66,252.38,174.66Z"/></g></g></svg>