<svg xmlns="http://www.w3.org/2000/svg" xmlns:xlink="http://www.w3.org/1999/xlink" viewBox="0 0 23.09 25.72"><defs><style>.cls-1{fill:url(#linear-gradient);}.cls-2{fill:url(#linear-gradient-2);}.cls-3{fill:url(#linear-gradient-3);}.cls-4{fill:url(#linear-gradient-4);}.cls-5{opacity:0.2;}.cls-5,.cls-6,.cls-7{isolation:isolate;}.cls-6{opacity:0.12;}.cls-7{fill:#fff;opacity:0.25;}</style><linearGradient id="linear-gradient" x1="11.83" y1="166.15" x2="-4.96" y2="149.37" gradientTransform="matrix(1, 0, 0, -1, 0, 167.72)" gradientUnits="userSpaceOnUse"><stop offset="0" stop-color="#00a0ff"/><stop offset="0.01" stop-color="#00a1ff"/><stop offset="0.26" stop-color="#00beff"/><stop offset="0.51" stop-color="#00d2ff"/><stop offset="0.76" stop-color="#00dfff"/><stop offset="1" stop-color="#00e3ff"/></linearGradient><linearGradient id="linear-gradient-2" x1="23.86" y1="154.86" x2="-0.34" y2="154.86" gradientTransform="matrix(1, 0, 0, -1, 0, 167.72)" gradientUnits="userSpaceOnUse"><stop offset="0" stop-color="#ffe000"/><stop offset="0.41" stop-color="#ffbd00"/><stop offset="0.78" stop-color="orange"/><stop offset="1" stop-color="#ff9c00"/></linearGradient><linearGradient id="linear-gradient-3" x1="14.85" y1="152.56" x2="-7.9" y2="129.81" gradientTransform="matrix(1, 0, 0, -1, 0, 167.72)" gradientUnits="userSpaceOnUse"><stop offset="0" stop-color="#ff3a44"/><stop offset="1" stop-color="#c31162"/></linearGradient><linearGradient id="linear-gradient-4" x1="-2.68" y1="174.68" x2="7.49" y2="164.52" gradientTransform="matrix(1, 0, 0, -1, 0, 167.72)" gradientUnits="userSpaceOnUse"><stop offset="0" stop-color="#32a071"/><stop offset="0.07" stop-color="#2da771"/><stop offset="0.48" stop-color="#15cf74"/><stop offset="0.8" stop-color="#06e775"/><stop offset="1" stop-color="#00f076"/></linearGradient></defs><title>google</title><g id="Слой_2" data-name="Слой 2"><g id="artwork"><path class="cls-1" d="M.46.4A2,2,0,0,0,0,1.8V23.92a2,2,0,0,0,.46,1.4l.08.08L12.93,13v-.3L.54.32Z"/><path class="cls-2" d="M17.06,17.14,12.93,13v-.3l4.13-4.13.09.06L22,11.42c1.4.79,1.4,2.09,0,2.88l-4.89,2.78Z"/><path class="cls-3" d="M17.15,17.08l-4.22-4.22L.46,25.32a1.62,1.62,0,0,0,2.08.06l14.61-8.3"/><path class="cls-4" d="M17.15,8.64,2.54.34A1.62,1.62,0,0,0,.46.4L12.93,12.86Z"/><path class="cls-5" d="M17.06,17,2.54,25.24a1.66,1.66,0,0,1-2,0h0l-.08.07h0l.08.08h0a1.65,1.65,0,0,0,2,0l14.61-8.3Z"/><path class="cls-6" d="M.46,25.18A2,2,0,0,1,0,23.77v.15a2,2,0,0,0,.46,1.4l.08-.07Z"/><path class="cls-6" d="M22,14.16l-5,2.83.09.09L22,14.3a1.75,1.75,0,0,0,1.05-1.44h0A1.86,1.86,0,0,1,22,14.16Z"/><path class="cls-7" d="M2.54.48,22,11.56a1.86,1.86,0,0,1,1.05,1.3h0A1.75,1.75,0,0,0,22,11.42L2.54.34C1.14-.46,0,.2,0,1.8V2C0,.35,1.14-.31,2.54.48Z"/></g></g></svg>