<svg width="157" height="27" viewBox="0 0 157 27" fill="none" xmlns="http://www.w3.org/2000/svg">
<g clip-path="url(#clip0)">
<path d="M88.871 26.488C90.1519 26.5235 91.4264 26.2948 92.615 25.816C93.5367 25.4498 94.3327 24.8246 94.907 24.016C95.4086 23.272 95.6723 22.3932 95.663 21.496C95.7132 20.5558 95.4092 19.631 94.811 18.904C94.2516 18.2701 93.5477 17.7803 92.759 17.476C91.7574 17.1042 90.7309 16.8034 89.687 16.576C88.775 16.352 88.055 16.152 87.527 15.976C87.0469 15.8267 86.6019 15.5818 86.219 15.256C86.0513 15.1104 85.918 14.9294 85.8288 14.726C85.7395 14.5226 85.6966 14.302 85.703 14.08C85.6984 13.75 85.7788 13.4243 85.9364 13.1343C86.0941 12.8443 86.3236 12.5997 86.603 12.424C87.4373 11.9494 88.3935 11.7323 89.351 11.8C90.1387 11.8051 90.922 11.9182 91.679 12.136C92.4849 12.3636 93.2579 12.6943 93.979 13.12L94.963 10.696C94.1747 10.1879 93.3066 9.81605 92.395 9.59599C91.4073 9.34069 90.3912 9.21166 89.371 9.212C88.0939 9.17564 86.8232 9.40445 85.639 9.88399C84.7196 10.2545 83.9275 10.8839 83.359 11.696C82.8584 12.4449 82.5949 13.3272 82.603 14.228C82.5518 15.1793 82.8554 16.1157 83.455 16.856C84.0069 17.4929 84.7077 17.9834 85.495 18.284C86.5103 18.6546 87.5484 18.9592 88.603 19.196C89.515 19.42 90.235 19.62 90.763 19.796C91.2452 19.9463 91.6907 20.1956 92.071 20.528C92.2384 20.6764 92.3714 20.8596 92.4605 21.0649C92.5497 21.2701 92.5928 21.4923 92.587 21.716C92.5873 22.0382 92.5019 22.3548 92.3395 22.6331C92.1771 22.9115 91.9437 23.1416 91.663 23.3C90.8042 23.7581 89.8341 23.966 88.863 23.9C87.8372 23.8971 86.8192 23.7227 85.851 23.384C84.9378 23.0862 84.0817 22.6359 83.319 22.052L82.239 24.476C83.0833 25.1574 84.0599 25.6559 85.107 25.94C86.3247 26.3094 87.5905 26.4954 88.863 26.492L88.871 26.488ZM114.647 13.288C113.697 13.2761 112.756 13.4685 111.887 13.852C111.089 14.2018 110.389 14.7415 109.847 15.424C109.428 14.7297 108.815 14.1735 108.083 13.824C107.283 13.452 106.409 13.2673 105.527 13.284C104.704 13.2731 103.888 13.4282 103.127 13.74C102.429 14.0279 101.811 14.4808 101.327 15.06V13.43H98.471V26.246H101.471V19.746C101.399 18.7145 101.721 17.694 102.371 16.89C102.682 16.5597 103.061 16.3007 103.481 16.1309C103.902 15.961 104.354 15.8843 104.807 15.906C105.204 15.881 105.601 15.9444 105.971 16.0917C106.34 16.2391 106.672 16.4667 106.943 16.758C107.489 17.4841 107.754 18.3838 107.687 19.29V26.25H110.687V19.75C110.619 18.7206 110.945 17.7039 111.599 16.906C111.907 16.5739 112.283 16.3125 112.701 16.1398C113.12 15.9672 113.571 15.8874 114.023 15.906C114.42 15.881 114.817 15.9444 115.187 16.0917C115.556 16.2391 115.888 16.4667 116.159 16.758C116.705 17.4841 116.97 18.3838 116.903 19.29V26.25H119.903V18.9C119.962 18.1388 119.866 17.3737 119.623 16.6501C119.38 15.9265 118.993 15.2592 118.487 14.688C117.974 14.208 117.37 13.8366 116.71 13.596C116.05 13.3555 115.348 13.2507 114.647 13.288ZM128.639 13.288C127.625 13.2823 126.615 13.4197 125.639 13.696C124.764 13.933 123.941 14.3312 123.212 14.87L124.388 17.054C124.91 16.6316 125.509 16.3138 126.152 16.118C126.838 15.8957 127.555 15.7823 128.276 15.782C129.134 15.7185 129.984 15.975 130.664 16.502C130.939 16.7671 131.154 17.0891 131.292 17.4456C131.43 17.8021 131.489 18.1845 131.464 18.566V18.758H128.152C126.727 18.6425 125.304 19.0095 124.112 19.8C123.696 20.1295 123.363 20.552 123.14 21.0334C122.917 21.5148 122.81 22.0417 122.828 22.572C122.819 23.2764 123.024 23.967 123.416 24.552C123.832 25.1562 124.41 25.6304 125.084 25.92C125.879 26.263 126.738 26.4308 127.604 26.412C128.446 26.434 129.283 26.2829 130.064 25.968C130.704 25.7053 131.251 25.2584 131.636 24.684V26.244H134.468V18.734C134.526 17.9842 134.422 17.2308 134.163 16.5247C133.905 15.8187 133.497 15.1766 132.968 14.642C131.745 13.6631 130.199 13.1791 128.636 13.286L128.639 13.288ZM128.226 24.23C127.59 24.2672 126.959 24.099 126.426 23.75C126.219 23.604 126.051 23.4088 125.938 23.1819C125.825 22.9549 125.77 22.7034 125.778 22.45C125.778 21.3167 126.642 20.75 128.37 20.75H131.47V22.238C131.245 22.8603 130.807 23.3831 130.234 23.714C129.626 24.064 128.935 24.2423 128.234 24.23H128.226ZM141.162 15.3V13.43H138.306V26.246H141.306V20.03C141.233 18.9585 141.587 17.9017 142.29 17.09C142.65 16.7395 143.08 16.4678 143.551 16.2922C144.022 16.1166 144.524 16.041 145.026 16.07C145.261 16.0723 145.495 16.0964 145.726 16.142V13.286C143.55 13.286 142.03 13.958 141.166 15.302L141.162 15.3ZM155.612 23.414C155.129 23.7775 154.536 23.9639 153.932 23.942C153.69 23.9584 153.447 23.923 153.219 23.8381C152.991 23.7533 152.784 23.621 152.612 23.45C152.283 23.0498 152.12 22.5388 152.156 22.022V15.922H155.588V13.522H152.156V10.6H149.156V13.528H147.042V15.928H149.154V22.096C149.113 22.6826 149.194 23.2713 149.392 23.8249C149.591 24.3785 149.902 24.8849 150.306 25.312C151.207 26.0942 152.38 26.4895 153.57 26.412C154.111 26.4152 154.649 26.3425 155.17 26.196C155.638 26.0703 156.075 25.8498 156.454 25.548L155.612 23.414Z" fill="white"/>
<path d="M26.052 26.246L26.018 2.44601H22.38L13.098 18.222L3.646 2.44601H0.0119934V26.246H4.228V10.674L12.048 23.526H14.012L21.832 10.47L21.866 26.246H26.048H26.052ZM32.07 26.246H36.32V8.09002H32.07V26.246ZM34.212 5.10002C34.5728 5.11251 34.9323 5.05109 35.2685 4.91953C35.6047 4.78798 35.9105 4.58906 36.167 4.33501C36.4166 4.0894 36.6133 3.79525 36.7448 3.47071C36.8764 3.14617 36.9401 2.79812 36.932 2.44801C36.9388 2.11655 36.8723 1.78767 36.7371 1.48495C36.6019 1.18222 36.4014 0.913154 36.15 0.697016C35.6159 0.226703 34.9233 -0.0234668 34.212 -0.00298518C33.495 -0.0233574 32.7989 0.239231 32.274 0.728016C32.027 0.962256 31.8303 1.24434 31.6959 1.55707C31.5615 1.8698 31.4922 2.20662 31.4922 2.54702C31.4922 2.88741 31.5615 3.22423 31.6959 3.53696C31.8303 3.84969 32.027 4.13177 32.274 4.36601C32.7987 4.85508 33.495 5.11771 34.212 5.09702V5.10002ZM68.347 26.248L68.313 2.44801H64.675L55.393 18.224L45.941 2.44801H42.303V26.248H46.519V10.674L54.339 23.526H56.312L64.132 10.47L64.166 26.246H68.348L68.347 26.248ZM74.365 26.248H78.615V8.09002H74.365V26.246V26.248ZM76.512 5.10002C76.8728 5.11251 77.2324 5.05109 77.5686 4.91953C77.9048 4.78798 78.2105 4.58906 78.467 4.33501C78.7166 4.0894 78.9133 3.79525 79.0448 3.47071C79.1764 3.14617 79.2401 2.79812 79.232 2.44801C79.2388 2.11655 79.1723 1.78767 79.0371 1.48495C78.9019 1.18222 78.7014 0.913154 78.45 0.697016C77.9159 0.226703 77.2233 -0.0234668 76.512 -0.00298518C75.7951 -0.0233574 75.0989 0.239231 74.574 0.728016C74.327 0.962256 74.1303 1.24434 73.9959 1.55707C73.8615 1.8698 73.7922 2.20662 73.7922 2.54702C73.7922 2.88741 73.8615 3.22423 73.9959 3.53696C74.1303 3.84969 74.327 4.13177 74.574 4.36601C75.0987 4.85508 75.795 5.11771 76.512 5.09702V5.10002Z" fill="#00CFFF"/>
</g>
<defs>
<clipPath id="clip0">
<rect width="156.437" height="26.5" fill="white"/>
</clipPath>
</defs>
</svg>
